%TF.GenerationSoftware,KiCad,Pcbnew,(6.0.6-0)*%
%TF.CreationDate,2022-07-15T18:49:22+02:00*%
%TF.ProjectId,laemp,6c61656d-702e-46b6-9963-61645f706362,1*%
%TF.SameCoordinates,Original*%
%TF.FileFunction,Soldermask,Top*%
%TF.FilePolarity,Negative*%
%FSLAX46Y46*%
G04 Gerber Fmt 4.6, Leading zero omitted, Abs format (unit mm)*
G04 Created by KiCad (PCBNEW (6.0.6-0)) date 2022-07-15 18:49:22*
%MOMM*%
%LPD*%
G01*
G04 APERTURE LIST*
G04 Aperture macros list*
%AMRoundRect*
0 Rectangle with rounded corners*
0 $1 Rounding radius*
0 $2 $3 $4 $5 $6 $7 $8 $9 X,Y pos of 4 corners*
0 Add a 4 corners polygon primitive as box body*
4,1,4,$2,$3,$4,$5,$6,$7,$8,$9,$2,$3,0*
0 Add four circle primitives for the rounded corners*
1,1,$1+$1,$2,$3*
1,1,$1+$1,$4,$5*
1,1,$1+$1,$6,$7*
1,1,$1+$1,$8,$9*
0 Add four rect primitives between the rounded corners*
20,1,$1+$1,$2,$3,$4,$5,0*
20,1,$1+$1,$4,$5,$6,$7,0*
20,1,$1+$1,$6,$7,$8,$9,0*
20,1,$1+$1,$8,$9,$2,$3,0*%
G04 Aperture macros list end*
%ADD10R,1.800000X1.800000*%
%ADD11C,1.800000*%
%ADD12RoundRect,0.250002X-1.699998X-1.699998X1.699998X-1.699998X1.699998X1.699998X-1.699998X1.699998X0*%
%ADD13C,3.900000*%
%ADD14C,5.400000*%
%ADD15C,0.800000*%
%ADD16O,1.600000X1.600000*%
%ADD17C,1.600000*%
G04 APERTURE END LIST*
D10*
%TO.C,D236*%
X192960000Y-55500000D03*
D11*
X195500000Y-55500000D03*
%TD*%
D10*
%TO.C,D299*%
X220960000Y-48500000D03*
D11*
X223500000Y-48500000D03*
%TD*%
D10*
%TO.C,D79*%
X108960000Y-48500000D03*
D11*
X111500000Y-48500000D03*
%TD*%
D10*
%TO.C,D92*%
X115960000Y-132500000D03*
D11*
X118500000Y-132500000D03*
%TD*%
D10*
%TO.C,D23*%
X73960000Y-69500000D03*
D11*
X76500000Y-69500000D03*
%TD*%
D10*
%TO.C,D228*%
X185960000Y-90500000D03*
D11*
X188500000Y-90500000D03*
%TD*%
D10*
%TO.C,D128*%
X129960000Y-62500000D03*
D11*
X132500000Y-62500000D03*
%TD*%
D10*
%TO.C,D99*%
X115960000Y-83500000D03*
D11*
X118500000Y-83500000D03*
%TD*%
D10*
%TO.C,D157*%
X150960000Y-48500000D03*
D11*
X153500000Y-48500000D03*
%TD*%
D10*
%TO.C,D280*%
X213960000Y-90500000D03*
D11*
X216500000Y-90500000D03*
%TD*%
D10*
%TO.C,D100*%
X115960000Y-76500000D03*
D11*
X118500000Y-76500000D03*
%TD*%
D10*
%TO.C,D25*%
X73960000Y-55500000D03*
D11*
X76500000Y-55500000D03*
%TD*%
D10*
%TO.C,D192*%
X164960000Y-111500000D03*
D11*
X167500000Y-111500000D03*
%TD*%
D10*
%TO.C,D289*%
X220960000Y-118500000D03*
D11*
X223500000Y-118500000D03*
%TD*%
D10*
%TO.C,D231*%
X185960000Y-69500000D03*
D11*
X188500000Y-69500000D03*
%TD*%
D10*
%TO.C,D204*%
X171960000Y-76500000D03*
D11*
X174500000Y-76500000D03*
%TD*%
D10*
%TO.C,D219*%
X178960000Y-118500000D03*
D11*
X181500000Y-118500000D03*
%TD*%
D10*
%TO.C,D9*%
X66960000Y-104500000D03*
D11*
X69500000Y-104500000D03*
%TD*%
D10*
%TO.C,D242*%
X192960000Y-97500000D03*
D11*
X195500000Y-97500000D03*
%TD*%
D10*
%TO.C,D40*%
X87960000Y-132500000D03*
D11*
X90500000Y-132500000D03*
%TD*%
D10*
%TO.C,D20*%
X73960000Y-90500000D03*
D11*
X76500000Y-90500000D03*
%TD*%
D10*
%TO.C,D45*%
X87960000Y-97500000D03*
D11*
X90500000Y-97500000D03*
%TD*%
D10*
%TO.C,D267*%
X206960000Y-90500000D03*
D11*
X209500000Y-90500000D03*
%TD*%
D10*
%TO.C,D82*%
X108960000Y-69500000D03*
D11*
X111500000Y-69500000D03*
%TD*%
D10*
%TO.C,D70*%
X101960000Y-104500000D03*
D11*
X104500000Y-104500000D03*
%TD*%
D10*
%TO.C,D12*%
X66960000Y-125500000D03*
D11*
X69500000Y-125500000D03*
%TD*%
D10*
%TO.C,D47*%
X87960000Y-83500000D03*
D11*
X90500000Y-83500000D03*
%TD*%
D10*
%TO.C,D154*%
X143960000Y-62500000D03*
D11*
X146500000Y-62500000D03*
%TD*%
D10*
%TO.C,D271*%
X206960000Y-118500000D03*
D11*
X209500000Y-118500000D03*
%TD*%
D10*
%TO.C,D106*%
X122960000Y-55500000D03*
D11*
X125500000Y-55500000D03*
%TD*%
D10*
%TO.C,D78*%
X101960000Y-48500000D03*
D11*
X104500000Y-48500000D03*
%TD*%
D10*
%TO.C,D269*%
X206960000Y-104500000D03*
D11*
X209500000Y-104500000D03*
%TD*%
D10*
%TO.C,D145*%
X143960000Y-125500000D03*
D11*
X146500000Y-125500000D03*
%TD*%
D10*
%TO.C,D216*%
X178960000Y-97500000D03*
D11*
X181500000Y-97500000D03*
%TD*%
D10*
%TO.C,D152*%
X143960000Y-76500000D03*
D11*
X146500000Y-76500000D03*
%TD*%
D10*
%TO.C,D16*%
X73960000Y-118500000D03*
D11*
X76500000Y-118500000D03*
%TD*%
D10*
%TO.C,D234*%
X185960000Y-48500000D03*
D11*
X188500000Y-48500000D03*
%TD*%
D10*
%TO.C,D266*%
X206960000Y-83500000D03*
D11*
X209500000Y-83500000D03*
%TD*%
D10*
%TO.C,D189*%
X164960000Y-90500000D03*
D11*
X167500000Y-90500000D03*
%TD*%
D10*
%TO.C,D181*%
X157960000Y-55500000D03*
D11*
X160500000Y-55500000D03*
%TD*%
D10*
%TO.C,D89*%
X108960000Y-118500000D03*
D11*
X111500000Y-118500000D03*
%TD*%
D10*
%TO.C,D209*%
X178960000Y-48500000D03*
D11*
X181500000Y-48500000D03*
%TD*%
D10*
%TO.C,D224*%
X185960000Y-118500000D03*
D11*
X188500000Y-118500000D03*
%TD*%
D10*
%TO.C,D19*%
X73960000Y-97500000D03*
D11*
X76500000Y-97500000D03*
%TD*%
D10*
%TO.C,D2*%
X66960000Y-55500000D03*
D11*
X69500000Y-55500000D03*
%TD*%
D10*
%TO.C,D141*%
X136960000Y-118500000D03*
D11*
X139500000Y-118500000D03*
%TD*%
D10*
%TO.C,D91*%
X108960000Y-132500000D03*
D11*
X111500000Y-132500000D03*
%TD*%
D10*
%TO.C,D150*%
X143960000Y-90500000D03*
D11*
X146500000Y-90500000D03*
%TD*%
D10*
%TO.C,D277*%
X213960000Y-69500000D03*
D11*
X216500000Y-69500000D03*
%TD*%
D10*
%TO.C,D118*%
X129960000Y-132500000D03*
D11*
X132500000Y-132500000D03*
%TD*%
D10*
%TO.C,D33*%
X80960000Y-90500000D03*
D11*
X83500000Y-90500000D03*
%TD*%
D10*
%TO.C,D188*%
X164960000Y-83500000D03*
D11*
X167500000Y-83500000D03*
%TD*%
D10*
%TO.C,D143*%
X136960000Y-132500000D03*
D11*
X139500000Y-132500000D03*
%TD*%
D10*
%TO.C,D206*%
X171960000Y-62500000D03*
D11*
X174500000Y-62500000D03*
%TD*%
D10*
%TO.C,D121*%
X129960000Y-111500000D03*
D11*
X132500000Y-111500000D03*
%TD*%
D10*
%TO.C,D151*%
X143960000Y-83500000D03*
D11*
X146500000Y-83500000D03*
%TD*%
D10*
%TO.C,D21*%
X73960000Y-83500000D03*
D11*
X76500000Y-83500000D03*
%TD*%
D10*
%TO.C,D113*%
X122960000Y-104500000D03*
D11*
X125500000Y-104500000D03*
%TD*%
D10*
%TO.C,D29*%
X80960000Y-62500000D03*
D11*
X83500000Y-62500000D03*
%TD*%
D10*
%TO.C,D124*%
X129960000Y-90500000D03*
D11*
X132500000Y-90500000D03*
%TD*%
D10*
%TO.C,D133*%
X136960000Y-62500000D03*
D11*
X139500000Y-62500000D03*
%TD*%
D10*
%TO.C,D295*%
X220960000Y-76500000D03*
D11*
X223500000Y-76500000D03*
%TD*%
D10*
%TO.C,D173*%
X157960000Y-111500000D03*
D11*
X160500000Y-111500000D03*
%TD*%
D10*
%TO.C,D60*%
X94960000Y-97500000D03*
D11*
X97500000Y-97500000D03*
%TD*%
D10*
%TO.C,D174*%
X157960000Y-104500000D03*
D11*
X160500000Y-104500000D03*
%TD*%
D10*
%TO.C,D285*%
X213960000Y-125500000D03*
D11*
X216500000Y-125500000D03*
%TD*%
D10*
%TO.C,D24*%
X73960000Y-62500000D03*
D11*
X76500000Y-62500000D03*
%TD*%
D10*
%TO.C,D74*%
X101960000Y-76500000D03*
D11*
X104500000Y-76500000D03*
%TD*%
D10*
%TO.C,D116*%
X122960000Y-125500000D03*
D11*
X125500000Y-125500000D03*
%TD*%
D12*
%TO.C,J1*%
X140600000Y-30000000D03*
D13*
X148400000Y-30000000D03*
%TD*%
D10*
%TO.C,D183*%
X164960000Y-48500000D03*
D11*
X167500000Y-48500000D03*
%TD*%
D10*
%TO.C,D230*%
X185960000Y-76500000D03*
D11*
X188500000Y-76500000D03*
%TD*%
D10*
%TO.C,D17*%
X73960000Y-111500000D03*
D11*
X76500000Y-111500000D03*
%TD*%
D10*
%TO.C,D235*%
X192960000Y-48500000D03*
D11*
X195500000Y-48500000D03*
%TD*%
D10*
%TO.C,D223*%
X185960000Y-125500000D03*
D11*
X188500000Y-125500000D03*
%TD*%
D10*
%TO.C,D175*%
X157960000Y-97500000D03*
D11*
X160500000Y-97500000D03*
%TD*%
D10*
%TO.C,D105*%
X122960000Y-48500000D03*
D11*
X125500000Y-48500000D03*
%TD*%
D10*
%TO.C,D122*%
X129960000Y-104500000D03*
D11*
X132500000Y-104500000D03*
%TD*%
D10*
%TO.C,D168*%
X150960000Y-125500000D03*
D11*
X153500000Y-125500000D03*
%TD*%
D10*
%TO.C,D28*%
X80960000Y-55500000D03*
D11*
X83500000Y-55500000D03*
%TD*%
D10*
%TO.C,D247*%
X192960000Y-132500000D03*
D11*
X195500000Y-132500000D03*
%TD*%
D10*
%TO.C,D149*%
X143960000Y-97500000D03*
D11*
X146500000Y-97500000D03*
%TD*%
D10*
%TO.C,D72*%
X101960000Y-90500000D03*
D11*
X104500000Y-90500000D03*
%TD*%
D10*
%TO.C,D256*%
X199960000Y-76500000D03*
D11*
X202500000Y-76500000D03*
%TD*%
D10*
%TO.C,D294*%
X220960000Y-83500000D03*
D11*
X223500000Y-83500000D03*
%TD*%
D10*
%TO.C,D220*%
X178960000Y-125500000D03*
D11*
X181500000Y-125500000D03*
%TD*%
D10*
%TO.C,D218*%
X178960000Y-111500000D03*
D11*
X181500000Y-111500000D03*
%TD*%
D10*
%TO.C,D4*%
X66960000Y-69500000D03*
D11*
X69500000Y-69500000D03*
%TD*%
D10*
%TO.C,D46*%
X87960000Y-90500000D03*
D11*
X90500000Y-90500000D03*
%TD*%
D10*
%TO.C,D184*%
X164960000Y-55500000D03*
D11*
X167500000Y-55500000D03*
%TD*%
D10*
%TO.C,D286*%
X213960000Y-132500000D03*
D11*
X216500000Y-132500000D03*
%TD*%
D10*
%TO.C,D94*%
X115960000Y-118500000D03*
D11*
X118500000Y-118500000D03*
%TD*%
D10*
%TO.C,D10*%
X66960000Y-111500000D03*
D11*
X69500000Y-111500000D03*
%TD*%
D10*
%TO.C,D131*%
X136960000Y-48500000D03*
D11*
X139500000Y-48500000D03*
%TD*%
D10*
%TO.C,D11*%
X66960000Y-118500000D03*
D11*
X69500000Y-118500000D03*
%TD*%
D10*
%TO.C,D130*%
X129960000Y-48500000D03*
D11*
X132500000Y-48500000D03*
%TD*%
D10*
%TO.C,D162*%
X150960000Y-83500000D03*
D11*
X153500000Y-83500000D03*
%TD*%
D10*
%TO.C,D123*%
X129960000Y-97500000D03*
D11*
X132500000Y-97500000D03*
%TD*%
D10*
%TO.C,D165*%
X150960000Y-104500000D03*
D11*
X153500000Y-104500000D03*
%TD*%
D10*
%TO.C,D179*%
X157960000Y-69500000D03*
D11*
X160500000Y-69500000D03*
%TD*%
D10*
%TO.C,D71*%
X101960000Y-97500000D03*
D11*
X104500000Y-97500000D03*
%TD*%
D10*
%TO.C,D30*%
X80960000Y-69500000D03*
D11*
X83500000Y-69500000D03*
%TD*%
D10*
%TO.C,D144*%
X143960000Y-132500000D03*
D11*
X146500000Y-132500000D03*
%TD*%
D10*
%TO.C,D67*%
X101960000Y-125500000D03*
D11*
X104500000Y-125500000D03*
%TD*%
D10*
%TO.C,D268*%
X206960000Y-97500000D03*
D11*
X209500000Y-97500000D03*
%TD*%
D10*
%TO.C,D85*%
X108960000Y-90500000D03*
D11*
X111500000Y-90500000D03*
%TD*%
D10*
%TO.C,D146*%
X143960000Y-118500000D03*
D11*
X146500000Y-118500000D03*
%TD*%
D10*
%TO.C,D96*%
X115960000Y-104500000D03*
D11*
X118500000Y-104500000D03*
%TD*%
D10*
%TO.C,D240*%
X192960000Y-83500000D03*
D11*
X195500000Y-83500000D03*
%TD*%
D10*
%TO.C,D44*%
X87960000Y-104500000D03*
D11*
X90500000Y-104500000D03*
%TD*%
D10*
%TO.C,D102*%
X115960000Y-62500000D03*
D11*
X118500000Y-62500000D03*
%TD*%
D10*
%TO.C,D178*%
X157960000Y-76500000D03*
D11*
X160500000Y-76500000D03*
%TD*%
D10*
%TO.C,D83*%
X108960000Y-76500000D03*
D11*
X111500000Y-76500000D03*
%TD*%
D10*
%TO.C,D199*%
X171960000Y-111500000D03*
D11*
X174500000Y-111500000D03*
%TD*%
D10*
%TO.C,D35*%
X80960000Y-104500000D03*
D11*
X83500000Y-104500000D03*
%TD*%
D10*
%TO.C,D148*%
X143960000Y-104500000D03*
D11*
X146500000Y-104500000D03*
%TD*%
D14*
%TO.C,H2*%
X236500000Y-33500000D03*
D15*
X234475000Y-33500000D03*
X237931891Y-34931891D03*
X235068109Y-34931891D03*
X235068109Y-32068109D03*
X236500000Y-35525000D03*
X238525000Y-33500000D03*
X237931891Y-32068109D03*
X236500000Y-31475000D03*
%TD*%
D10*
%TO.C,D90*%
X108960000Y-125500000D03*
D11*
X111500000Y-125500000D03*
%TD*%
D10*
%TO.C,D147*%
X143960000Y-111500000D03*
D11*
X146500000Y-111500000D03*
%TD*%
D14*
%TO.C,H6*%
X52500000Y-147500000D03*
D15*
X53931891Y-148931891D03*
X52500000Y-149525000D03*
X52500000Y-145475000D03*
X53931891Y-146068109D03*
X54525000Y-147500000D03*
X50475000Y-147500000D03*
X51068109Y-148931891D03*
X51068109Y-146068109D03*
%TD*%
D10*
%TO.C,D172*%
X157960000Y-118500000D03*
D11*
X160500000Y-118500000D03*
%TD*%
D10*
%TO.C,D7*%
X66960000Y-90500000D03*
D11*
X69500000Y-90500000D03*
%TD*%
D10*
%TO.C,D239*%
X192960000Y-76500000D03*
D11*
X195500000Y-76500000D03*
%TD*%
D10*
%TO.C,D13*%
X66960000Y-132500000D03*
D11*
X69500000Y-132500000D03*
%TD*%
D10*
%TO.C,D195*%
X164960000Y-132500000D03*
D11*
X167500000Y-132500000D03*
%TD*%
D10*
%TO.C,D156*%
X143960000Y-48500000D03*
D11*
X146500000Y-48500000D03*
%TD*%
D14*
%TO.C,H4*%
X236500000Y-147500000D03*
D15*
X235068109Y-148931891D03*
X236500000Y-149525000D03*
X237931891Y-148931891D03*
X238525000Y-147500000D03*
X235068109Y-146068109D03*
X234475000Y-147500000D03*
X237931891Y-146068109D03*
X236500000Y-145475000D03*
%TD*%
D10*
%TO.C,D276*%
X213960000Y-62500000D03*
D11*
X216500000Y-62500000D03*
%TD*%
D10*
%TO.C,D237*%
X192960000Y-62500000D03*
D11*
X195500000Y-62500000D03*
%TD*%
D10*
%TO.C,D88*%
X108960000Y-111500000D03*
D11*
X111500000Y-111500000D03*
%TD*%
D10*
%TO.C,D120*%
X129960000Y-118500000D03*
D11*
X132500000Y-118500000D03*
%TD*%
D10*
%TO.C,D119*%
X129960000Y-125500000D03*
D11*
X132500000Y-125500000D03*
%TD*%
D10*
%TO.C,D109*%
X122960000Y-76500000D03*
D11*
X125500000Y-76500000D03*
%TD*%
D10*
%TO.C,D66*%
X101960000Y-132500000D03*
D11*
X104500000Y-132500000D03*
%TD*%
D10*
%TO.C,D80*%
X108960000Y-55500000D03*
D11*
X111500000Y-55500000D03*
%TD*%
D10*
%TO.C,D126*%
X129960000Y-76500000D03*
D11*
X132500000Y-76500000D03*
%TD*%
D10*
%TO.C,D161*%
X150960000Y-76500000D03*
D11*
X153500000Y-76500000D03*
%TD*%
D10*
%TO.C,D258*%
X199960000Y-62500000D03*
D11*
X202500000Y-62500000D03*
%TD*%
D10*
%TO.C,D251*%
X199960000Y-111500000D03*
D11*
X202500000Y-111500000D03*
%TD*%
D10*
%TO.C,D15*%
X73960000Y-125500000D03*
D11*
X76500000Y-125500000D03*
%TD*%
D10*
%TO.C,D42*%
X87960000Y-118500000D03*
D11*
X90500000Y-118500000D03*
%TD*%
D10*
%TO.C,D260*%
X199960000Y-48500000D03*
D11*
X202500000Y-48500000D03*
%TD*%
D10*
%TO.C,D134*%
X136960000Y-69500000D03*
D11*
X139500000Y-69500000D03*
%TD*%
D10*
%TO.C,D115*%
X122960000Y-118500000D03*
D11*
X125500000Y-118500000D03*
%TD*%
D10*
%TO.C,D142*%
X136960000Y-125500000D03*
D11*
X139500000Y-125500000D03*
%TD*%
D10*
%TO.C,D291*%
X220960000Y-104500000D03*
D11*
X223500000Y-104500000D03*
%TD*%
D15*
%TO.C,H3*%
X235068109Y-91931891D03*
X236500000Y-92525000D03*
X238525000Y-90500000D03*
D14*
X236500000Y-90500000D03*
D15*
X234475000Y-90500000D03*
X237931891Y-89068109D03*
X236500000Y-88475000D03*
X237931891Y-91931891D03*
X235068109Y-89068109D03*
%TD*%
D10*
%TO.C,D275*%
X213960000Y-55500000D03*
D11*
X216500000Y-55500000D03*
%TD*%
D10*
%TO.C,D238*%
X192960000Y-69500000D03*
D11*
X195500000Y-69500000D03*
%TD*%
D10*
%TO.C,D187*%
X164960000Y-76500000D03*
D11*
X167500000Y-76500000D03*
%TD*%
D10*
%TO.C,D125*%
X129960000Y-83500000D03*
D11*
X132500000Y-83500000D03*
%TD*%
D10*
%TO.C,D297*%
X220960000Y-62500000D03*
D11*
X223500000Y-62500000D03*
%TD*%
D10*
%TO.C,D167*%
X150960000Y-118500000D03*
D11*
X153500000Y-118500000D03*
%TD*%
D10*
%TO.C,D95*%
X115960000Y-111500000D03*
D11*
X118500000Y-111500000D03*
%TD*%
D10*
%TO.C,D138*%
X136960000Y-97500000D03*
D11*
X139500000Y-97500000D03*
%TD*%
D10*
%TO.C,D3*%
X66960000Y-62500000D03*
D11*
X69500000Y-62500000D03*
%TD*%
D10*
%TO.C,D49*%
X87960000Y-69500000D03*
D11*
X90500000Y-69500000D03*
%TD*%
D10*
%TO.C,D107*%
X122960000Y-62500000D03*
D11*
X125500000Y-62500000D03*
%TD*%
D10*
%TO.C,D274*%
X213960000Y-48500000D03*
D11*
X216500000Y-48500000D03*
%TD*%
D10*
%TO.C,D98*%
X115960000Y-90500000D03*
D11*
X118500000Y-90500000D03*
%TD*%
D10*
%TO.C,D22*%
X73960000Y-76500000D03*
D11*
X76500000Y-76500000D03*
%TD*%
D10*
%TO.C,D61*%
X94960000Y-104500000D03*
D11*
X97500000Y-104500000D03*
%TD*%
D10*
%TO.C,D287*%
X220960000Y-132500000D03*
D11*
X223500000Y-132500000D03*
%TD*%
D10*
%TO.C,D14*%
X73960000Y-132500000D03*
D11*
X76500000Y-132500000D03*
%TD*%
D10*
%TO.C,D77*%
X101960000Y-55500000D03*
D11*
X104500000Y-55500000D03*
%TD*%
D10*
%TO.C,D93*%
X115960000Y-125500000D03*
D11*
X118500000Y-125500000D03*
%TD*%
D10*
%TO.C,D253*%
X199960000Y-97500000D03*
D11*
X202500000Y-97500000D03*
%TD*%
D10*
%TO.C,D97*%
X115960000Y-97500000D03*
D11*
X118500000Y-97500000D03*
%TD*%
D15*
%TO.C,H1*%
X52500000Y-31475000D03*
X51068109Y-32068109D03*
X52500000Y-35525000D03*
X54525000Y-33500000D03*
X50475000Y-33500000D03*
X51068109Y-34931891D03*
D14*
X52500000Y-33500000D03*
D15*
X53931891Y-32068109D03*
X53931891Y-34931891D03*
%TD*%
D10*
%TO.C,D62*%
X94960000Y-111500000D03*
D11*
X97500000Y-111500000D03*
%TD*%
D10*
%TO.C,D5*%
X66960000Y-76500000D03*
D11*
X69500000Y-76500000D03*
%TD*%
D10*
%TO.C,D36*%
X80960000Y-111500000D03*
D11*
X83500000Y-111500000D03*
%TD*%
D10*
%TO.C,D194*%
X164960000Y-125500000D03*
D11*
X167500000Y-125500000D03*
%TD*%
D10*
%TO.C,D213*%
X178960000Y-76500000D03*
D11*
X181500000Y-76500000D03*
%TD*%
D10*
%TO.C,D6*%
X66960000Y-83500000D03*
D11*
X69500000Y-83500000D03*
%TD*%
D10*
%TO.C,D180*%
X157960000Y-62500000D03*
D11*
X160500000Y-62500000D03*
%TD*%
D10*
%TO.C,D8*%
X66960000Y-97500000D03*
D11*
X69500000Y-97500000D03*
%TD*%
D10*
%TO.C,D227*%
X185960000Y-97500000D03*
D11*
X188500000Y-97500000D03*
%TD*%
D10*
%TO.C,D76*%
X101960000Y-62500000D03*
D11*
X104500000Y-62500000D03*
%TD*%
D10*
%TO.C,D64*%
X94960000Y-125500000D03*
D11*
X97500000Y-125500000D03*
%TD*%
D10*
%TO.C,D84*%
X108960000Y-83500000D03*
D11*
X111500000Y-83500000D03*
%TD*%
D10*
%TO.C,D104*%
X115960000Y-48500000D03*
D11*
X118500000Y-48500000D03*
%TD*%
D10*
%TO.C,D136*%
X136960000Y-83500000D03*
D11*
X139500000Y-83500000D03*
%TD*%
D10*
%TO.C,D68*%
X101960000Y-118500000D03*
D11*
X104500000Y-118500000D03*
%TD*%
D10*
%TO.C,D212*%
X178960000Y-69500000D03*
D11*
X181500000Y-69500000D03*
%TD*%
D10*
%TO.C,D111*%
X122960000Y-90500000D03*
D11*
X125500000Y-90500000D03*
%TD*%
D10*
%TO.C,D182*%
X157960000Y-48500000D03*
D11*
X160500000Y-48500000D03*
%TD*%
D10*
%TO.C,D245*%
X192960000Y-118500000D03*
D11*
X195500000Y-118500000D03*
%TD*%
D10*
%TO.C,D86*%
X108960000Y-97500000D03*
D11*
X111500000Y-97500000D03*
%TD*%
D10*
%TO.C,D127*%
X129960000Y-69500000D03*
D11*
X132500000Y-69500000D03*
%TD*%
D10*
%TO.C,D248*%
X199960000Y-132500000D03*
D11*
X202500000Y-132500000D03*
%TD*%
D10*
%TO.C,D1*%
X66960000Y-48500000D03*
D11*
X69500000Y-48500000D03*
%TD*%
D10*
%TO.C,D232*%
X185960000Y-62500000D03*
D11*
X188500000Y-62500000D03*
%TD*%
D10*
%TO.C,D263*%
X206960000Y-62500000D03*
D11*
X209500000Y-62500000D03*
%TD*%
D10*
%TO.C,D197*%
X171960000Y-125500000D03*
D11*
X174500000Y-125500000D03*
%TD*%
D10*
%TO.C,D177*%
X157960000Y-83500000D03*
D11*
X160500000Y-83500000D03*
%TD*%
D10*
%TO.C,D59*%
X94960000Y-90500000D03*
D11*
X97500000Y-90500000D03*
%TD*%
D10*
%TO.C,D233*%
X185960000Y-55500000D03*
D11*
X188500000Y-55500000D03*
%TD*%
D10*
%TO.C,D205*%
X171960000Y-69500000D03*
D11*
X174500000Y-69500000D03*
%TD*%
D10*
%TO.C,D43*%
X87960000Y-111500000D03*
D11*
X90500000Y-111500000D03*
%TD*%
D10*
%TO.C,D202*%
X171960000Y-90500000D03*
D11*
X174500000Y-90500000D03*
%TD*%
D10*
%TO.C,D75*%
X101960000Y-69500000D03*
D11*
X104500000Y-69500000D03*
%TD*%
D10*
%TO.C,D225*%
X185960000Y-111500000D03*
D11*
X188500000Y-111500000D03*
%TD*%
D10*
%TO.C,D63*%
X94960000Y-118500000D03*
D11*
X97500000Y-118500000D03*
%TD*%
D10*
%TO.C,D81*%
X108960000Y-62500000D03*
D11*
X111500000Y-62500000D03*
%TD*%
D10*
%TO.C,D226*%
X185960000Y-104500000D03*
D11*
X188500000Y-104500000D03*
%TD*%
D10*
%TO.C,D137*%
X136960000Y-90500000D03*
D11*
X139500000Y-90500000D03*
%TD*%
D10*
%TO.C,D132*%
X136960000Y-55500000D03*
D11*
X139500000Y-55500000D03*
%TD*%
D10*
%TO.C,D252*%
X199960000Y-104500000D03*
D11*
X202500000Y-104500000D03*
%TD*%
D10*
%TO.C,D281*%
X213960000Y-97500000D03*
D11*
X216500000Y-97500000D03*
%TD*%
D10*
%TO.C,D293*%
X220960000Y-90500000D03*
D11*
X223500000Y-90500000D03*
%TD*%
D10*
%TO.C,D51*%
X87960000Y-55500000D03*
D11*
X90500000Y-55500000D03*
%TD*%
D10*
%TO.C,D249*%
X199960000Y-125500000D03*
D11*
X202500000Y-125500000D03*
%TD*%
D10*
%TO.C,D169*%
X150960000Y-132500000D03*
D11*
X153500000Y-132500000D03*
%TD*%
D10*
%TO.C,D176*%
X157960000Y-90500000D03*
D11*
X160500000Y-90500000D03*
%TD*%
D10*
%TO.C,D241*%
X192960000Y-90500000D03*
D11*
X195500000Y-90500000D03*
%TD*%
D14*
%TO.C,H5*%
X144500000Y-147500000D03*
D15*
X145931891Y-146068109D03*
X143068109Y-146068109D03*
X144500000Y-149525000D03*
X145931891Y-148931891D03*
X142475000Y-147500000D03*
X144500000Y-145475000D03*
X143068109Y-148931891D03*
X146525000Y-147500000D03*
%TD*%
D10*
%TO.C,D166*%
X150960000Y-111500000D03*
D11*
X153500000Y-111500000D03*
%TD*%
D10*
%TO.C,D153*%
X143960000Y-69500000D03*
D11*
X146500000Y-69500000D03*
%TD*%
D10*
%TO.C,D211*%
X178960000Y-62500000D03*
D11*
X181500000Y-62500000D03*
%TD*%
D10*
%TO.C,D50*%
X87960000Y-62500000D03*
D11*
X90500000Y-62500000D03*
%TD*%
D10*
%TO.C,D158*%
X150960000Y-55500000D03*
D11*
X153500000Y-55500000D03*
%TD*%
D10*
%TO.C,D73*%
X101960000Y-83500000D03*
D11*
X104500000Y-83500000D03*
%TD*%
D10*
%TO.C,D87*%
X108960000Y-104500000D03*
D11*
X111500000Y-104500000D03*
%TD*%
D10*
%TO.C,D282*%
X213960000Y-104500000D03*
D11*
X216500000Y-104500000D03*
%TD*%
D10*
%TO.C,D254*%
X199960000Y-90500000D03*
D11*
X202500000Y-90500000D03*
%TD*%
D10*
%TO.C,D217*%
X178960000Y-104500000D03*
D11*
X181500000Y-104500000D03*
%TD*%
D10*
%TO.C,D58*%
X94960000Y-83500000D03*
D11*
X97500000Y-83500000D03*
%TD*%
D10*
%TO.C,D26*%
X73960000Y-48500000D03*
D11*
X76500000Y-48500000D03*
%TD*%
D10*
%TO.C,D298*%
X220960000Y-55500000D03*
D11*
X223500000Y-55500000D03*
%TD*%
D10*
%TO.C,D65*%
X94960000Y-132500000D03*
D11*
X97500000Y-132500000D03*
%TD*%
D10*
%TO.C,D112*%
X122960000Y-97500000D03*
D11*
X125500000Y-97500000D03*
%TD*%
D10*
%TO.C,D114*%
X122960000Y-111500000D03*
D11*
X125500000Y-111500000D03*
%TD*%
D10*
%TO.C,D191*%
X164960000Y-104500000D03*
D11*
X167500000Y-104500000D03*
%TD*%
D10*
%TO.C,D39*%
X80960000Y-132500000D03*
D11*
X83500000Y-132500000D03*
%TD*%
D10*
%TO.C,D135*%
X136960000Y-76500000D03*
D11*
X139500000Y-76500000D03*
%TD*%
D10*
%TO.C,D243*%
X192960000Y-104500000D03*
D11*
X195500000Y-104500000D03*
%TD*%
D10*
%TO.C,D53*%
X94960000Y-48500000D03*
D11*
X97500000Y-48500000D03*
%TD*%
D10*
%TO.C,D198*%
X171960000Y-118500000D03*
D11*
X174500000Y-118500000D03*
%TD*%
D10*
%TO.C,D210*%
X178960000Y-55500000D03*
D11*
X181500000Y-55500000D03*
%TD*%
D10*
%TO.C,D170*%
X157960000Y-132500000D03*
D11*
X160500000Y-132500000D03*
%TD*%
D10*
%TO.C,D288*%
X220960000Y-125500000D03*
D11*
X223500000Y-125500000D03*
%TD*%
D10*
%TO.C,D101*%
X115960000Y-69500000D03*
D11*
X118500000Y-69500000D03*
%TD*%
D10*
%TO.C,D37*%
X80960000Y-118500000D03*
D11*
X83500000Y-118500000D03*
%TD*%
D10*
%TO.C,D255*%
X199960000Y-83500000D03*
D11*
X202500000Y-83500000D03*
%TD*%
D10*
%TO.C,D296*%
X220960000Y-69500000D03*
D11*
X223500000Y-69500000D03*
%TD*%
D10*
%TO.C,D250*%
X199960000Y-118500000D03*
D11*
X202500000Y-118500000D03*
%TD*%
D10*
%TO.C,D279*%
X213960000Y-83500000D03*
D11*
X216500000Y-83500000D03*
%TD*%
D10*
%TO.C,D38*%
X80960000Y-125500000D03*
D11*
X83500000Y-125500000D03*
%TD*%
D10*
%TO.C,D155*%
X143960000Y-55500000D03*
D11*
X146500000Y-55500000D03*
%TD*%
D10*
%TO.C,D69*%
X101960000Y-111500000D03*
D11*
X104500000Y-111500000D03*
%TD*%
D10*
%TO.C,D34*%
X80960000Y-97500000D03*
D11*
X83500000Y-97500000D03*
%TD*%
D10*
%TO.C,D31*%
X80960000Y-76500000D03*
D11*
X83500000Y-76500000D03*
%TD*%
D10*
%TO.C,D159*%
X150960000Y-62500000D03*
D11*
X153500000Y-62500000D03*
%TD*%
D10*
%TO.C,D41*%
X87960000Y-125500000D03*
D11*
X90500000Y-125500000D03*
%TD*%
D10*
%TO.C,D283*%
X213960000Y-111500000D03*
D11*
X216500000Y-111500000D03*
%TD*%
D10*
%TO.C,D103*%
X115960000Y-55500000D03*
D11*
X118500000Y-55500000D03*
%TD*%
D10*
%TO.C,D108*%
X122960000Y-69500000D03*
D11*
X125500000Y-69500000D03*
%TD*%
D10*
%TO.C,D284*%
X213960000Y-118500000D03*
D11*
X216500000Y-118500000D03*
%TD*%
D10*
%TO.C,D196*%
X171960000Y-132500000D03*
D11*
X174500000Y-132500000D03*
%TD*%
D10*
%TO.C,D259*%
X199960000Y-55500000D03*
D11*
X202500000Y-55500000D03*
%TD*%
D10*
%TO.C,D57*%
X94960000Y-76500000D03*
D11*
X97500000Y-76500000D03*
%TD*%
D10*
%TO.C,D203*%
X171960000Y-83500000D03*
D11*
X174500000Y-83500000D03*
%TD*%
D10*
%TO.C,D278*%
X213960000Y-76500000D03*
D11*
X216500000Y-76500000D03*
%TD*%
D10*
%TO.C,D265*%
X206960000Y-76500000D03*
D11*
X209500000Y-76500000D03*
%TD*%
D10*
%TO.C,D190*%
X164960000Y-97500000D03*
D11*
X167500000Y-97500000D03*
%TD*%
D10*
%TO.C,D185*%
X164960000Y-62500000D03*
D11*
X167500000Y-62500000D03*
%TD*%
D10*
%TO.C,D18*%
X73960000Y-104500000D03*
D11*
X76500000Y-104500000D03*
%TD*%
D10*
%TO.C,D270*%
X206960000Y-111500000D03*
D11*
X209500000Y-111500000D03*
%TD*%
D10*
%TO.C,D222*%
X185960000Y-132500000D03*
D11*
X188500000Y-132500000D03*
%TD*%
D10*
%TO.C,D32*%
X80960000Y-83500000D03*
D11*
X83500000Y-83500000D03*
%TD*%
D10*
%TO.C,D246*%
X192960000Y-125500000D03*
D11*
X195500000Y-125500000D03*
%TD*%
D10*
%TO.C,D56*%
X94960000Y-69500000D03*
D11*
X97500000Y-69500000D03*
%TD*%
D10*
%TO.C,D244*%
X192960000Y-111500000D03*
D11*
X195500000Y-111500000D03*
%TD*%
D10*
%TO.C,D292*%
X220960000Y-97500000D03*
D11*
X223500000Y-97500000D03*
%TD*%
D10*
%TO.C,D193*%
X164960000Y-118500000D03*
D11*
X167500000Y-118500000D03*
%TD*%
D10*
%TO.C,D164*%
X150960000Y-97500000D03*
D11*
X153500000Y-97500000D03*
%TD*%
D10*
%TO.C,D257*%
X199960000Y-69500000D03*
D11*
X202500000Y-69500000D03*
%TD*%
D10*
%TO.C,D273*%
X206960000Y-132500000D03*
D11*
X209500000Y-132500000D03*
%TD*%
D10*
%TO.C,D139*%
X136960000Y-104500000D03*
D11*
X139500000Y-104500000D03*
%TD*%
D10*
%TO.C,D201*%
X171960000Y-97500000D03*
D11*
X174500000Y-97500000D03*
%TD*%
D10*
%TO.C,D272*%
X206960000Y-125500000D03*
D11*
X209500000Y-125500000D03*
%TD*%
D10*
%TO.C,D229*%
X185960000Y-83500000D03*
D11*
X188500000Y-83500000D03*
%TD*%
D10*
%TO.C,D110*%
X122960000Y-83500000D03*
D11*
X125500000Y-83500000D03*
%TD*%
D10*
%TO.C,D186*%
X164960000Y-69500000D03*
D11*
X167500000Y-69500000D03*
%TD*%
D10*
%TO.C,D55*%
X94960000Y-62500000D03*
D11*
X97500000Y-62500000D03*
%TD*%
D10*
%TO.C,D208*%
X171960000Y-48500000D03*
D11*
X174500000Y-48500000D03*
%TD*%
D10*
%TO.C,D54*%
X94960000Y-55500000D03*
D11*
X97500000Y-55500000D03*
%TD*%
D10*
%TO.C,D264*%
X206960000Y-69500000D03*
D11*
X209500000Y-69500000D03*
%TD*%
D10*
%TO.C,D290*%
X220960000Y-111500000D03*
D11*
X223500000Y-111500000D03*
%TD*%
D15*
%TO.C,H7*%
X51068109Y-91931891D03*
X54525000Y-90500000D03*
X53931891Y-89068109D03*
X51068109Y-89068109D03*
X50475000Y-90500000D03*
X52500000Y-92525000D03*
D14*
X52500000Y-90500000D03*
D15*
X53931891Y-91931891D03*
X52500000Y-88475000D03*
%TD*%
D10*
%TO.C,D52*%
X87960000Y-48500000D03*
D11*
X90500000Y-48500000D03*
%TD*%
D10*
%TO.C,D160*%
X150960000Y-69500000D03*
D11*
X153500000Y-69500000D03*
%TD*%
D10*
%TO.C,D261*%
X206960000Y-48500000D03*
D11*
X209500000Y-48500000D03*
%TD*%
D10*
%TO.C,D200*%
X171960000Y-104500000D03*
D11*
X174500000Y-104500000D03*
%TD*%
D10*
%TO.C,D140*%
X136960000Y-111500000D03*
D11*
X139500000Y-111500000D03*
%TD*%
D10*
%TO.C,D221*%
X178960000Y-132500000D03*
D11*
X181500000Y-132500000D03*
%TD*%
D10*
%TO.C,D117*%
X122960000Y-132500000D03*
D11*
X125500000Y-132500000D03*
%TD*%
D10*
%TO.C,D163*%
X150960000Y-90500000D03*
D11*
X153500000Y-90500000D03*
%TD*%
D10*
%TO.C,D214*%
X178960000Y-83500000D03*
D11*
X181500000Y-83500000D03*
%TD*%
D10*
%TO.C,D129*%
X129960000Y-55500000D03*
D11*
X132500000Y-55500000D03*
%TD*%
D10*
%TO.C,D171*%
X157960000Y-125500000D03*
D11*
X160500000Y-125500000D03*
%TD*%
D10*
%TO.C,D48*%
X87960000Y-76500000D03*
D11*
X90500000Y-76500000D03*
%TD*%
D10*
%TO.C,D207*%
X171960000Y-55500000D03*
D11*
X174500000Y-55500000D03*
%TD*%
D10*
%TO.C,D215*%
X178960000Y-90500000D03*
D11*
X181500000Y-90500000D03*
%TD*%
D10*
%TO.C,D27*%
X80960000Y-48500000D03*
D11*
X83500000Y-48500000D03*
%TD*%
D10*
%TO.C,D262*%
X206960000Y-55500000D03*
D11*
X209500000Y-55500000D03*
%TD*%
D16*
%TO.C,R12*%
X107620000Y-52000000D03*
D17*
X92380000Y-52000000D03*
%TD*%
%TO.C,R39*%
X197500000Y-87000000D03*
D16*
X212740000Y-87000000D03*
%TD*%
D17*
%TO.C,R15*%
X135120000Y-87000000D03*
D16*
X119880000Y-87000000D03*
%TD*%
D17*
%TO.C,R33*%
X176380000Y-115000000D03*
D16*
X191620000Y-115000000D03*
%TD*%
D17*
%TO.C,R14*%
X106380000Y-136000000D03*
D16*
X121620000Y-136000000D03*
%TD*%
D17*
%TO.C,R19*%
X120380000Y-73000000D03*
D16*
X135620000Y-73000000D03*
%TD*%
D17*
%TO.C,R22*%
X134380000Y-108000000D03*
D16*
X149620000Y-108000000D03*
%TD*%
D17*
%TO.C,R36*%
X183380000Y-122000000D03*
D16*
X198620000Y-122000000D03*
%TD*%
D17*
%TO.C,R9*%
X85380000Y-73000000D03*
D16*
X100620000Y-73000000D03*
%TD*%
D17*
%TO.C,R37*%
X190380000Y-101000000D03*
D16*
X205620000Y-101000000D03*
%TD*%
D17*
%TO.C,R20*%
X127380000Y-66000000D03*
D16*
X142620000Y-66000000D03*
%TD*%
D17*
%TO.C,R40*%
X204380000Y-45000000D03*
D16*
X219620000Y-45000000D03*
%TD*%
D17*
%TO.C,R25*%
X141380000Y-129000000D03*
D16*
X156620000Y-129000000D03*
%TD*%
D17*
%TO.C,R7*%
X78380000Y-115000000D03*
D16*
X93620000Y-115000000D03*
%TD*%
D17*
%TO.C,R27*%
X184120000Y-45000000D03*
D16*
X168880000Y-45000000D03*
%TD*%
D17*
%TO.C,R13*%
X99380000Y-87000000D03*
D16*
X114620000Y-87000000D03*
%TD*%
D17*
%TO.C,R2*%
X86120000Y-94000000D03*
D16*
X70880000Y-94000000D03*
%TD*%
D17*
%TO.C,R30*%
X162380000Y-80000000D03*
D16*
X177620000Y-80000000D03*
%TD*%
D17*
%TO.C,R41*%
X204380000Y-94000000D03*
D16*
X219620000Y-94000000D03*
%TD*%
D17*
%TO.C,R28*%
X184120000Y-94000000D03*
D16*
X168880000Y-94000000D03*
%TD*%
D17*
%TO.C,R18*%
X120380000Y-122000000D03*
D16*
X135620000Y-122000000D03*
%TD*%
D17*
%TO.C,R23*%
X134380000Y-59000000D03*
D16*
X149620000Y-59000000D03*
%TD*%
D17*
%TO.C,R6*%
X71380000Y-108000000D03*
D16*
X86620000Y-108000000D03*
%TD*%
D17*
%TO.C,R32*%
X169380000Y-108000000D03*
D16*
X184620000Y-108000000D03*
%TD*%
D17*
%TO.C,R10*%
X85380000Y-122000000D03*
D16*
X100620000Y-122000000D03*
%TD*%
D17*
%TO.C,R43*%
X211380000Y-80000000D03*
D16*
X226620000Y-80000000D03*
%TD*%
D17*
%TO.C,R4*%
X64380000Y-80000000D03*
D16*
X79620000Y-80000000D03*
%TD*%
D17*
%TO.C,R26*%
X148380000Y-94000000D03*
D16*
X163620000Y-94000000D03*
%TD*%
D17*
%TO.C,R24*%
X141380000Y-80000000D03*
D16*
X156620000Y-80000000D03*
%TD*%
D17*
%TO.C,R1*%
X86120000Y-45000000D03*
D16*
X70880000Y-45000000D03*
%TD*%
D17*
%TO.C,R8*%
X78380000Y-66000000D03*
D16*
X93620000Y-66000000D03*
%TD*%
D17*
%TO.C,R34*%
X176380000Y-66000000D03*
D16*
X191620000Y-66000000D03*
%TD*%
D17*
%TO.C,R3*%
X64380000Y-129000000D03*
D16*
X79620000Y-129000000D03*
%TD*%
D17*
%TO.C,R29*%
X162380000Y-129000000D03*
D16*
X177620000Y-129000000D03*
%TD*%
D17*
%TO.C,R35*%
X183380000Y-73000000D03*
D16*
X198620000Y-73000000D03*
%TD*%
D17*
%TO.C,R21*%
X127380000Y-115000000D03*
D16*
X142620000Y-115000000D03*
%TD*%
D17*
%TO.C,R38*%
X190500000Y-52000000D03*
D16*
X205740000Y-52000000D03*
%TD*%
D17*
%TO.C,R42*%
X211380000Y-129000000D03*
D16*
X226620000Y-129000000D03*
%TD*%
D17*
%TO.C,R31*%
X169380000Y-59000000D03*
D16*
X184620000Y-59000000D03*
%TD*%
%TO.C,R5*%
X86620000Y-59000000D03*
D17*
X71380000Y-59000000D03*
%TD*%
%TO.C,R16*%
X113380000Y-52000000D03*
D16*
X128620000Y-52000000D03*
%TD*%
D17*
%TO.C,R17*%
X113380000Y-101000000D03*
D16*
X128620000Y-101000000D03*
%TD*%
D17*
%TO.C,R11*%
X92380000Y-101000000D03*
D16*
X107620000Y-101000000D03*
%TD*%
M02*
