M48
; DRILL file {KiCad (6.0.6-0)} date 2022 July 15, Friday 18:49:18
; FORMAT={-:-/ absolute / inch / decimal}
; #@! TF.CreationDate,2022-07-15T18:49:18+02:00
; #@! TF.GenerationSoftware,Kicad,Pcbnew,(6.0.6-0)
; #@! TF.FileFunction,Plated,1,2,PTH
FMAT,2
INCH
; #@! TA.AperFunction,Plated,PTH,ComponentDrill
T1C0.0197
; #@! TA.AperFunction,Plated,PTH,ComponentDrill
T2C0.0315
; #@! TA.AperFunction,Plated,PTH,ComponentDrill
T3C0.0354
; #@! TA.AperFunction,Plated,PTH,ComponentDrill
T4C0.0689
; #@! TA.AperFunction,Plated,PTH,ComponentDrill
T5C0.1063
%
G90
G05
T1
X1.9872Y-1.3189
X1.9872Y-3.563
X1.9872Y-5.8071
X2.0106Y-1.2625
X2.0106Y-1.3753
X2.0106Y-3.5066
X2.0106Y-3.6194
X2.0106Y-5.7507
X2.0106Y-5.8635
X2.0669Y-1.2392
X2.0669Y-1.3986
X2.0669Y-3.4833
X2.0669Y-3.6427
X2.0669Y-5.7274
X2.0669Y-5.8868
X2.1233Y-1.2625
X2.1233Y-1.3753
X2.1233Y-3.5066
X2.1233Y-3.6194
X2.1233Y-5.7507
X2.1233Y-5.8635
X2.1467Y-1.3189
X2.1467Y-3.563
X2.1467Y-5.8071
X5.6093Y-5.8071
X5.6326Y-5.7507
X5.6326Y-5.8635
X5.689Y-5.7274
X5.689Y-5.8868
X5.7454Y-5.7507
X5.7454Y-5.8635
X5.7687Y-5.8071
X9.2313Y-1.3189
X9.2313Y-3.563
X9.2313Y-5.8071
X9.2546Y-1.2625
X9.2546Y-1.3753
X9.2546Y-3.5066
X9.2546Y-3.6194
X9.2546Y-5.7507
X9.2546Y-5.8635
X9.311Y-1.2392
X9.311Y-1.3986
X9.311Y-3.4833
X9.311Y-3.6427
X9.311Y-5.7274
X9.311Y-5.8868
X9.3674Y-1.2625
X9.3674Y-1.3753
X9.3674Y-3.5066
X9.3674Y-3.6194
X9.3674Y-5.7507
X9.3674Y-5.8635
X9.3907Y-1.3189
X9.3907Y-3.563
X9.3907Y-5.8071
T2
X2.5346Y-3.1496
X2.5346Y-5.0787
X2.7906Y-1.7717
X2.7906Y-3.7008
X2.8102Y-2.3228
X2.8102Y-4.252
X3.0858Y-2.5984
X3.0858Y-4.5276
X3.1346Y-3.1496
X3.1346Y-5.0787
X3.3614Y-2.874
X3.3614Y-4.8031
X3.3906Y-1.7717
X3.3906Y-3.7008
X3.4102Y-2.3228
X3.4102Y-4.252
X3.637Y-2.0472
X3.637Y-3.9764
X3.6858Y-2.5984
X3.6858Y-4.5276
X3.9126Y-3.4252
X3.9614Y-2.874
X3.9614Y-4.8031
X4.1882Y-5.3543
X4.237Y-2.0472
X4.237Y-3.9764
X4.4638Y-2.0472
X4.4638Y-3.9764
X4.5126Y-3.4252
X4.7197Y-3.4252
X4.7394Y-2.874
X4.7394Y-4.8031
X4.7882Y-5.3543
X5.015Y-2.5984
X5.015Y-4.5276
X5.0638Y-2.0472
X5.0638Y-3.9764
X5.2906Y-2.3228
X5.2906Y-4.252
X5.3197Y-3.4252
X5.3394Y-2.874
X5.3394Y-4.8031
X5.5661Y-3.1496
X5.5661Y-5.0787
X5.615Y-2.5984
X5.615Y-4.5276
X5.8417Y-3.7008
X5.8906Y-2.3228
X5.8906Y-4.252
X6.1661Y-3.1496
X6.1661Y-5.0787
X6.3929Y-3.1496
X6.3929Y-5.0787
X6.4417Y-3.7008
X6.6488Y-1.7717
X6.6488Y-3.7008
X6.6685Y-2.3228
X6.6685Y-4.252
X6.9441Y-2.5984
X6.9441Y-4.5276
X6.9929Y-3.1496
X6.9929Y-5.0787
X7.2197Y-2.874
X7.2197Y-4.8031
X7.2488Y-1.7717
X7.2488Y-3.7008
X7.2685Y-2.3228
X7.2685Y-4.252
X7.4953Y-3.9764
X7.5Y-2.0472
X7.5441Y-2.5984
X7.5441Y-4.5276
X7.7756Y-3.4252
X7.8197Y-2.874
X7.8197Y-4.8031
X8.0465Y-1.7717
X8.0465Y-3.7008
X8.0953Y-3.9764
X8.1Y-2.0472
X8.322Y-3.1496
X8.322Y-5.0787
X8.3756Y-3.4252
X8.6465Y-1.7717
X8.6465Y-3.7008
X8.922Y-3.1496
X8.922Y-5.0787
T3
X2.6362Y-1.9094
X2.6362Y-2.185
X2.6362Y-2.4606
X2.6362Y-2.7362
X2.6362Y-3.0118
X2.6362Y-3.2874
X2.6362Y-3.563
X2.6362Y-3.8386
X2.6362Y-4.1142
X2.6362Y-4.3898
X2.6362Y-4.6654
X2.6362Y-4.9409
X2.6362Y-5.2165
X2.7362Y-1.9094
X2.7362Y-2.185
X2.7362Y-2.4606
X2.7362Y-2.7362
X2.7362Y-3.0118
X2.7362Y-3.2874
X2.7362Y-3.563
X2.7362Y-3.8386
X2.7362Y-4.1142
X2.7362Y-4.3898
X2.7362Y-4.6654
X2.7362Y-4.9409
X2.7362Y-5.2165
X2.9118Y-1.9094
X2.9118Y-2.185
X2.9118Y-2.4606
X2.9118Y-2.7362
X2.9118Y-3.0118
X2.9118Y-3.2874
X2.9118Y-3.563
X2.9118Y-3.8386
X2.9118Y-4.1142
X2.9118Y-4.3898
X2.9118Y-4.6654
X2.9118Y-4.9409
X2.9118Y-5.2165
X3.0118Y-1.9094
X3.0118Y-2.185
X3.0118Y-2.4606
X3.0118Y-2.7362
X3.0118Y-3.0118
X3.0118Y-3.2874
X3.0118Y-3.563
X3.0118Y-3.8386
X3.0118Y-4.1142
X3.0118Y-4.3898
X3.0118Y-4.6654
X3.0118Y-4.9409
X3.0118Y-5.2165
X3.1874Y-1.9094
X3.1874Y-2.185
X3.1874Y-2.4606
X3.1874Y-2.7362
X3.1874Y-3.0118
X3.1874Y-3.2874
X3.1874Y-3.563
X3.1874Y-3.8386
X3.1874Y-4.1142
X3.1874Y-4.3898
X3.1874Y-4.6654
X3.1874Y-4.9409
X3.1874Y-5.2165
X3.2874Y-1.9094
X3.2874Y-2.185
X3.2874Y-2.4606
X3.2874Y-2.7362
X3.2874Y-3.0118
X3.2874Y-3.2874
X3.2874Y-3.563
X3.2874Y-3.8386
X3.2874Y-4.1142
X3.2874Y-4.3898
X3.2874Y-4.6654
X3.2874Y-4.9409
X3.2874Y-5.2165
X3.463Y-1.9094
X3.463Y-2.185
X3.463Y-2.4606
X3.463Y-2.7362
X3.463Y-3.0118
X3.463Y-3.2874
X3.463Y-3.563
X3.463Y-3.8386
X3.463Y-4.1142
X3.463Y-4.3898
X3.463Y-4.6654
X3.463Y-4.9409
X3.463Y-5.2165
X3.563Y-1.9094
X3.563Y-2.185
X3.563Y-2.4606
X3.563Y-2.7362
X3.563Y-3.0118
X3.563Y-3.2874
X3.563Y-3.563
X3.563Y-3.8386
X3.563Y-4.1142
X3.563Y-4.3898
X3.563Y-4.6654
X3.563Y-4.9409
X3.563Y-5.2165
X3.7386Y-1.9094
X3.7386Y-2.185
X3.7386Y-2.4606
X3.7386Y-2.7362
X3.7386Y-3.0118
X3.7386Y-3.2874
X3.7386Y-3.563
X3.7386Y-3.8386
X3.7386Y-4.1142
X3.7386Y-4.3898
X3.7386Y-4.6654
X3.7386Y-4.9409
X3.7386Y-5.2165
X3.8386Y-1.9094
X3.8386Y-2.185
X3.8386Y-2.4606
X3.8386Y-2.7362
X3.8386Y-3.0118
X3.8386Y-3.2874
X3.8386Y-3.563
X3.8386Y-3.8386
X3.8386Y-4.1142
X3.8386Y-4.3898
X3.8386Y-4.6654
X3.8386Y-4.9409
X3.8386Y-5.2165
X4.0142Y-1.9094
X4.0142Y-2.185
X4.0142Y-2.4606
X4.0142Y-2.7362
X4.0142Y-3.0118
X4.0142Y-3.2874
X4.0142Y-3.563
X4.0142Y-3.8386
X4.0142Y-4.1142
X4.0142Y-4.3898
X4.0142Y-4.6654
X4.0142Y-4.9409
X4.0142Y-5.2165
X4.1142Y-1.9094
X4.1142Y-2.185
X4.1142Y-2.4606
X4.1142Y-2.7362
X4.1142Y-3.0118
X4.1142Y-3.2874
X4.1142Y-3.563
X4.1142Y-3.8386
X4.1142Y-4.1142
X4.1142Y-4.3898
X4.1142Y-4.6654
X4.1142Y-4.9409
X4.1142Y-5.2165
X4.2898Y-1.9094
X4.2898Y-2.185
X4.2898Y-2.4606
X4.2898Y-2.7362
X4.2898Y-3.0118
X4.2898Y-3.2874
X4.2898Y-3.563
X4.2898Y-3.8386
X4.2898Y-4.1142
X4.2898Y-4.3898
X4.2898Y-4.6654
X4.2898Y-4.9409
X4.2898Y-5.2165
X4.3898Y-1.9094
X4.3898Y-2.185
X4.3898Y-2.4606
X4.3898Y-2.7362
X4.3898Y-3.0118
X4.3898Y-3.2874
X4.3898Y-3.563
X4.3898Y-3.8386
X4.3898Y-4.1142
X4.3898Y-4.3898
X4.3898Y-4.6654
X4.3898Y-4.9409
X4.3898Y-5.2165
X4.5654Y-1.9094
X4.5654Y-2.185
X4.5654Y-2.4606
X4.5654Y-2.7362
X4.5654Y-3.0118
X4.5654Y-3.2874
X4.5654Y-3.563
X4.5654Y-3.8386
X4.5654Y-4.1142
X4.5654Y-4.3898
X4.5654Y-4.6654
X4.5654Y-4.9409
X4.5654Y-5.2165
X4.6654Y-1.9094
X4.6654Y-2.185
X4.6654Y-2.4606
X4.6654Y-2.7362
X4.6654Y-3.0118
X4.6654Y-3.2874
X4.6654Y-3.563
X4.6654Y-3.8386
X4.6654Y-4.1142
X4.6654Y-4.3898
X4.6654Y-4.6654
X4.6654Y-4.9409
X4.6654Y-5.2165
X4.8409Y-1.9094
X4.8409Y-2.185
X4.8409Y-2.4606
X4.8409Y-2.7362
X4.8409Y-3.0118
X4.8409Y-3.2874
X4.8409Y-3.563
X4.8409Y-3.8386
X4.8409Y-4.1142
X4.8409Y-4.3898
X4.8409Y-4.6654
X4.8409Y-4.9409
X4.8409Y-5.2165
X4.9409Y-1.9094
X4.9409Y-2.185
X4.9409Y-2.4606
X4.9409Y-2.7362
X4.9409Y-3.0118
X4.9409Y-3.2874
X4.9409Y-3.563
X4.9409Y-3.8386
X4.9409Y-4.1142
X4.9409Y-4.3898
X4.9409Y-4.6654
X4.9409Y-4.9409
X4.9409Y-5.2165
X5.1165Y-1.9094
X5.1165Y-2.185
X5.1165Y-2.4606
X5.1165Y-2.7362
X5.1165Y-3.0118
X5.1165Y-3.2874
X5.1165Y-3.563
X5.1165Y-3.8386
X5.1165Y-4.1142
X5.1165Y-4.3898
X5.1165Y-4.6654
X5.1165Y-4.9409
X5.1165Y-5.2165
X5.2165Y-1.9094
X5.2165Y-2.185
X5.2165Y-2.4606
X5.2165Y-2.7362
X5.2165Y-3.0118
X5.2165Y-3.2874
X5.2165Y-3.563
X5.2165Y-3.8386
X5.2165Y-4.1142
X5.2165Y-4.3898
X5.2165Y-4.6654
X5.2165Y-4.9409
X5.2165Y-5.2165
X5.3921Y-1.9094
X5.3921Y-2.185
X5.3921Y-2.4606
X5.3921Y-2.7362
X5.3921Y-3.0118
X5.3921Y-3.2874
X5.3921Y-3.563
X5.3921Y-3.8386
X5.3921Y-4.1142
X5.3921Y-4.3898
X5.3921Y-4.6654
X5.3921Y-4.9409
X5.3921Y-5.2165
X5.4921Y-1.9094
X5.4921Y-2.185
X5.4921Y-2.4606
X5.4921Y-2.7362
X5.4921Y-3.0118
X5.4921Y-3.2874
X5.4921Y-3.563
X5.4921Y-3.8386
X5.4921Y-4.1142
X5.4921Y-4.3898
X5.4921Y-4.6654
X5.4921Y-4.9409
X5.4921Y-5.2165
X5.6677Y-1.9094
X5.6677Y-2.185
X5.6677Y-2.4606
X5.6677Y-2.7362
X5.6677Y-3.0118
X5.6677Y-3.2874
X5.6677Y-3.563
X5.6677Y-3.8386
X5.6677Y-4.1142
X5.6677Y-4.3898
X5.6677Y-4.6654
X5.6677Y-4.9409
X5.6677Y-5.2165
X5.7677Y-1.9094
X5.7677Y-2.185
X5.7677Y-2.4606
X5.7677Y-2.7362
X5.7677Y-3.0118
X5.7677Y-3.2874
X5.7677Y-3.563
X5.7677Y-3.8386
X5.7677Y-4.1142
X5.7677Y-4.3898
X5.7677Y-4.6654
X5.7677Y-4.9409
X5.7677Y-5.2165
X5.9433Y-1.9094
X5.9433Y-2.185
X5.9433Y-2.4606
X5.9433Y-2.7362
X5.9433Y-3.0118
X5.9433Y-3.2874
X5.9433Y-3.563
X5.9433Y-3.8386
X5.9433Y-4.1142
X5.9433Y-4.3898
X5.9433Y-4.6654
X5.9433Y-4.9409
X5.9433Y-5.2165
X6.0433Y-1.9094
X6.0433Y-2.185
X6.0433Y-2.4606
X6.0433Y-2.7362
X6.0433Y-3.0118
X6.0433Y-3.2874
X6.0433Y-3.563
X6.0433Y-3.8386
X6.0433Y-4.1142
X6.0433Y-4.3898
X6.0433Y-4.6654
X6.0433Y-4.9409
X6.0433Y-5.2165
X6.2189Y-1.9094
X6.2189Y-2.185
X6.2189Y-2.4606
X6.2189Y-2.7362
X6.2189Y-3.0118
X6.2189Y-3.2874
X6.2189Y-3.563
X6.2189Y-3.8386
X6.2189Y-4.1142
X6.2189Y-4.3898
X6.2189Y-4.6654
X6.2189Y-4.9409
X6.2189Y-5.2165
X6.3189Y-1.9094
X6.3189Y-2.185
X6.3189Y-2.4606
X6.3189Y-2.7362
X6.3189Y-3.0118
X6.3189Y-3.2874
X6.3189Y-3.563
X6.3189Y-3.8386
X6.3189Y-4.1142
X6.3189Y-4.3898
X6.3189Y-4.6654
X6.3189Y-4.9409
X6.3189Y-5.2165
X6.4945Y-1.9094
X6.4945Y-2.185
X6.4945Y-2.4606
X6.4945Y-2.7362
X6.4945Y-3.0118
X6.4945Y-3.2874
X6.4945Y-3.563
X6.4945Y-3.8386
X6.4945Y-4.1142
X6.4945Y-4.3898
X6.4945Y-4.6654
X6.4945Y-4.9409
X6.4945Y-5.2165
X6.5945Y-1.9094
X6.5945Y-2.185
X6.5945Y-2.4606
X6.5945Y-2.7362
X6.5945Y-3.0118
X6.5945Y-3.2874
X6.5945Y-3.563
X6.5945Y-3.8386
X6.5945Y-4.1142
X6.5945Y-4.3898
X6.5945Y-4.6654
X6.5945Y-4.9409
X6.5945Y-5.2165
X6.7701Y-1.9094
X6.7701Y-2.185
X6.7701Y-2.4606
X6.7701Y-2.7362
X6.7701Y-3.0118
X6.7701Y-3.2874
X6.7701Y-3.563
X6.7701Y-3.8386
X6.7701Y-4.1142
X6.7701Y-4.3898
X6.7701Y-4.6654
X6.7701Y-4.9409
X6.7701Y-5.2165
X6.8701Y-1.9094
X6.8701Y-2.185
X6.8701Y-2.4606
X6.8701Y-2.7362
X6.8701Y-3.0118
X6.8701Y-3.2874
X6.8701Y-3.563
X6.8701Y-3.8386
X6.8701Y-4.1142
X6.8701Y-4.3898
X6.8701Y-4.6654
X6.8701Y-4.9409
X6.8701Y-5.2165
X7.0457Y-1.9094
X7.0457Y-2.185
X7.0457Y-2.4606
X7.0457Y-2.7362
X7.0457Y-3.0118
X7.0457Y-3.2874
X7.0457Y-3.563
X7.0457Y-3.8386
X7.0457Y-4.1142
X7.0457Y-4.3898
X7.0457Y-4.6654
X7.0457Y-4.9409
X7.0457Y-5.2165
X7.1457Y-1.9094
X7.1457Y-2.185
X7.1457Y-2.4606
X7.1457Y-2.7362
X7.1457Y-3.0118
X7.1457Y-3.2874
X7.1457Y-3.563
X7.1457Y-3.8386
X7.1457Y-4.1142
X7.1457Y-4.3898
X7.1457Y-4.6654
X7.1457Y-4.9409
X7.1457Y-5.2165
X7.3213Y-1.9094
X7.3213Y-2.185
X7.3213Y-2.4606
X7.3213Y-2.7362
X7.3213Y-3.0118
X7.3213Y-3.2874
X7.3213Y-3.563
X7.3213Y-3.8386
X7.3213Y-4.1142
X7.3213Y-4.3898
X7.3213Y-4.6654
X7.3213Y-4.9409
X7.3213Y-5.2165
X7.4213Y-1.9094
X7.4213Y-2.185
X7.4213Y-2.4606
X7.4213Y-2.7362
X7.4213Y-3.0118
X7.4213Y-3.2874
X7.4213Y-3.563
X7.4213Y-3.8386
X7.4213Y-4.1142
X7.4213Y-4.3898
X7.4213Y-4.6654
X7.4213Y-4.9409
X7.4213Y-5.2165
X7.5969Y-1.9094
X7.5969Y-2.185
X7.5969Y-2.4606
X7.5969Y-2.7362
X7.5969Y-3.0118
X7.5969Y-3.2874
X7.5969Y-3.563
X7.5969Y-3.8386
X7.5969Y-4.1142
X7.5969Y-4.3898
X7.5969Y-4.6654
X7.5969Y-4.9409
X7.5969Y-5.2165
X7.6969Y-1.9094
X7.6969Y-2.185
X7.6969Y-2.4606
X7.6969Y-2.7362
X7.6969Y-3.0118
X7.6969Y-3.2874
X7.6969Y-3.563
X7.6969Y-3.8386
X7.6969Y-4.1142
X7.6969Y-4.3898
X7.6969Y-4.6654
X7.6969Y-4.9409
X7.6969Y-5.2165
X7.8724Y-1.9094
X7.8724Y-2.185
X7.8724Y-2.4606
X7.8724Y-2.7362
X7.8724Y-3.0118
X7.8724Y-3.2874
X7.8724Y-3.563
X7.8724Y-3.8386
X7.8724Y-4.1142
X7.8724Y-4.3898
X7.8724Y-4.6654
X7.8724Y-4.9409
X7.8724Y-5.2165
X7.9724Y-1.9094
X7.9724Y-2.185
X7.9724Y-2.4606
X7.9724Y-2.7362
X7.9724Y-3.0118
X7.9724Y-3.2874
X7.9724Y-3.563
X7.9724Y-3.8386
X7.9724Y-4.1142
X7.9724Y-4.3898
X7.9724Y-4.6654
X7.9724Y-4.9409
X7.9724Y-5.2165
X8.148Y-1.9094
X8.148Y-2.185
X8.148Y-2.4606
X8.148Y-2.7362
X8.148Y-3.0118
X8.148Y-3.2874
X8.148Y-3.563
X8.148Y-3.8386
X8.148Y-4.1142
X8.148Y-4.3898
X8.148Y-4.6654
X8.148Y-4.9409
X8.148Y-5.2165
X8.248Y-1.9094
X8.248Y-2.185
X8.248Y-2.4606
X8.248Y-2.7362
X8.248Y-3.0118
X8.248Y-3.2874
X8.248Y-3.563
X8.248Y-3.8386
X8.248Y-4.1142
X8.248Y-4.3898
X8.248Y-4.6654
X8.248Y-4.9409
X8.248Y-5.2165
X8.4236Y-1.9094
X8.4236Y-2.185
X8.4236Y-2.4606
X8.4236Y-2.7362
X8.4236Y-3.0118
X8.4236Y-3.2874
X8.4236Y-3.563
X8.4236Y-3.8386
X8.4236Y-4.1142
X8.4236Y-4.3898
X8.4236Y-4.6654
X8.4236Y-4.9409
X8.4236Y-5.2165
X8.5236Y-1.9094
X8.5236Y-2.185
X8.5236Y-2.4606
X8.5236Y-2.7362
X8.5236Y-3.0118
X8.5236Y-3.2874
X8.5236Y-3.563
X8.5236Y-3.8386
X8.5236Y-4.1142
X8.5236Y-4.3898
X8.5236Y-4.6654
X8.5236Y-4.9409
X8.5236Y-5.2165
X8.6992Y-1.9094
X8.6992Y-2.185
X8.6992Y-2.4606
X8.6992Y-2.7362
X8.6992Y-3.0118
X8.6992Y-3.2874
X8.6992Y-3.563
X8.6992Y-3.8386
X8.6992Y-4.1142
X8.6992Y-4.3898
X8.6992Y-4.6654
X8.6992Y-4.9409
X8.6992Y-5.2165
X8.7992Y-1.9094
X8.7992Y-2.185
X8.7992Y-2.4606
X8.7992Y-2.7362
X8.7992Y-3.0118
X8.7992Y-3.2874
X8.7992Y-3.563
X8.7992Y-3.8386
X8.7992Y-4.1142
X8.7992Y-4.3898
X8.7992Y-4.6654
X8.7992Y-4.9409
X8.7992Y-5.2165
T4
X5.5354Y-1.1811
X5.8425Y-1.1811
T5
X2.0669Y-1.3189
X2.0669Y-3.563
X2.0669Y-5.8071
X5.689Y-5.8071
X9.311Y-1.3189
X9.311Y-3.563
X9.311Y-5.8071
T0
M30
